<svg id="Layer_1" viewBox="0 0 512 512" xmlns="http://www.w3.org/2000/svg" data-name="Layer 1"><path d="m499.95 256.93-63.718-44.503c-18.065-43.628-51.055-78.877-93.406-99.818v-77.158h3.363c3.313 0 6-2.687 6-6v-19.451c0-3.313-2.687-6-6-6h-67.125c-3.313 0-6 2.687-6 6v19.451c0 3.313 2.687 6 6 6h3.364v30.814l-15.199-8.775c-1.856-1.071-4.143-1.072-6 0-1.856 1.072-3 3.053-3 5.196v17.551l-39.398-22.747c-1.856-1.071-4.144-1.072-6 0s-3 3.053-3 5.196v17.551l-39.398-22.747c-1.856-1.071-4.144-1.072-6 0s-3 3.053-3 5.196v54.88c-37.372 21.117-66.835 54.131-83.519 93.586-20.832 1.95-37.192 19.527-37.192 40.859 0 10.911 4.287 20.833 11.255 28.192-25.826 7.244-41.71 23.641-42.488 44.965-.002.073-.004.146-.004.219v31c0 3.313 2.687 6 6 6h62.484c16.712 39.45 46.117 72.354 83.465 93.455v32.752c0 3.313 2.687 6 6 6h11.346c2.534 7.771 9.84 13.406 18.446 13.406s15.912-5.635 18.446-13.406h74.155c2.534 7.771 9.84 13.406 18.446 13.406s15.912-5.635 18.446-13.406h19.469c3.313 0 6-2.687 6-6v-32.75c38.977-22.015 69.107-56.667 85.412-98.227h58.913c3.313 0 6-2.687 6-6v-89.767c0-1.96-.958-3.796-2.564-4.919zm-157.124-130.826c36.587 19.591 65.217 50.81 81.544 89.048l-14.549 10.162c-13.179-32.825-36.679-60.661-66.994-79.237v-19.972zm-57.762-110.104h55.125v7.451h-55.125zm30.562 69.433-21.199-12.239v-37.742h36.398v132.734h-12.199v-77.557c0-2.144-1.144-4.125-3-5.196zm-142.193-12.354 39.398 22.747c1.855 1.07 4.143 1.071 6 0 1.856-1.072 3-3.053 3-5.196v-17.551l39.398 22.747c1.856 1.07 4.143 1.071 6 0 1.856-1.072 3-3.053 3-5.196v-17.551l36.397 21.015v74.093h-133.193v-95.107zm-12 58.424v20.793c-24.133 17.14-42.984 40.098-55.015 66.918-4.599-3.465-9.949-5.979-15.755-7.267 14.975-33.222 39.705-61.313 70.77-80.444zm-79.664 91.463c16.016 0 29.046 13.03 29.046 29.046s-13.03 29.047-29.046 29.047c-4.962 0-9.636-1.253-13.727-3.456l-.065-.542c-.242.029-.478.066-.719.097-8.68-5.029-14.536-14.413-14.536-25.146 0-16.016 13.03-29.046 29.047-29.046zm2.942 127.426c-1.955.069-3.932.069-5.885 0-.071-.002-.142-.004-.212-.004h-57.128v-24.886c.848-21.378 22.428-32.404 43.756-35.931 5.06 2.236 10.649 3.487 16.528 3.487s11.465-1.251 16.525-3.486c20.93 3.467 42.911 14.599 43.759 35.929v24.887h-57.129c-.071 0-.142.001-.212.004zm80.865 93.997c-32.732-18.974-58.798-47.679-74.493-82.001h19.27c14.394 27.766 36.831 51.28 63.886 66.997zm31.649 51.611c-4.084 0-7.406-3.322-7.406-7.406s3.322-7.407 7.406-7.407 7.407 3.323 7.407 7.407-3.323 7.406-7.407 7.406zm23.793-13.406h-5.347c-2.534-7.771-9.84-13.407-18.446-13.407s-15.912 5.636-18.446 13.407h-5.346v-23.42h47.585zm0-35.42h-43.193l13.521-23.42h29.672zm87.255 48.827c-4.084 0-7.406-3.322-7.406-7.406s3.322-7.407 7.406-7.407 7.407 3.323 7.407 7.407-3.323 7.406-7.407 7.406zm31.916-13.406h-13.469c-2.534-7.771-9.84-13.407-18.446-13.407s-15.912 5.636-18.446 13.407h-56.809v-78.702h107.17zm6-90.702h-119.17c-3.313 0-6 2.687-6 6v13.862h-33.136c-2.144 0-4.125 1.144-5.196 3l-2.446 4.237c-23.267-13.521-42.829-33.269-56.195-56.603h24.007c3.313 0 6-2.687 6-6v-31c0-.073-.001-.146-.004-.219-.772-21.142-16.724-37.634-42.517-44.936 6.984-7.362 11.283-17.296 11.283-28.221 0-8.705-2.732-16.78-7.373-23.429 9.913-24.112 25.65-45.08 45.99-61.307v6.911c0 3.313 2.687 6 6 6h169.393c3.313 0 6-2.687 6-6v-13.821c25.857 17.629 45.749 42.776 56.871 72.02l-35.144 24.546c-1.607 1.123-2.564 2.959-2.564 4.919v89.767c0 3.313 2.687 6 6 6h24.225c-9.835 18.752-23.457 35.253-40.024 48.495v-8.22c0-3.313-2.687-6-6-6zm6 50.019v-20.789c22.965-16.32 41.339-38.156 53.435-63.505h19.019c-14.769 34.946-40.086 64.382-72.454 84.294zm106.588-96.294h-53.053v-61.879h53.053zm31.737 0h-19.737v-67.879c0-3.313-2.687-6-6-6h-65.053c-3.313 0-6 2.687-6 6v67.879h-19.736v-80.639l58.263-40.693 58.263 40.693zm-173.391-78.05h-1.907c-.969-2.96-2.164-5.841-3.575-8.622l1.351-1.351c2-2 3.101-4.661 3.101-7.495s-1.102-5.496-3.101-7.494l-12.079-12.079c-1.999-2-4.661-3.101-7.495-3.101s-5.495 1.101-7.495 3.101l-1.349 1.349c-2.782-1.412-5.664-2.607-8.624-3.576v-1.904c0-5.844-4.754-10.599-10.599-10.599h-17.082c-5.844 0-10.599 4.754-10.599 10.599v1.907c-2.96.969-5.84 2.164-8.622 3.575l-1.351-1.352c-4.133-4.132-10.857-4.131-14.989 0l-12.079 12.079c-2 1.999-3.101 4.661-3.101 7.495s1.101 5.495 3.101 7.495l1.349 1.349c-1.412 2.782-2.607 5.664-3.576 8.624h-1.904c-5.844 0-10.599 4.754-10.599 10.599v17.082c0 5.844 4.754 10.599 10.599 10.599h1.904c.97 2.961 2.165 5.842 3.576 8.624l-1.35 1.35c-4.132 4.133-4.131 10.857 0 14.989l12.079 12.078c2 2 4.661 3.102 7.495 3.102s5.495-1.102 7.495-3.101l1.351-1.352c2.782 1.412 5.662 2.606 8.622 3.576v1.907c0 5.844 4.754 10.599 10.599 10.599h17.082c5.844 0 10.599-4.754 10.599-10.599v-1.904c2.961-.97 5.843-2.165 8.624-3.576l1.349 1.349c2 2 4.661 3.102 7.495 3.102s5.496-1.102 7.494-3.101l12.079-12.079c4.132-4.132 4.132-10.856 0-14.99l-1.352-1.351c1.412-2.782 2.606-5.662 3.576-8.621h1.907c5.844 0 10.599-4.755 10.599-10.599v-17.082c0-5.844-4.754-10.599-10.599-10.599zm-1.401 26.279h-5.031c-2.768 0-5.176 1.894-5.83 4.583-1.196 4.919-3.144 9.616-5.789 13.959-1.44 2.364-1.075 5.407.882 7.364l3.562 3.561-10.098 10.097-3.56-3.56c-1.958-1.958-5-2.323-7.364-.881-4.338 2.644-9.036 4.591-13.96 5.789-2.689.654-4.583 3.062-4.583 5.83v5.028h-14.279v-5.031c0-2.768-1.894-5.176-4.583-5.83-4.92-1.196-9.616-3.144-13.958-5.789-2.365-1.44-5.406-1.076-7.364.881l-3.562 3.562-10.098-10.097 3.56-3.56c1.958-1.958 2.322-5 .881-7.365-2.644-4.338-4.591-9.036-5.789-13.96-.654-2.689-3.062-4.583-5.83-4.583h-5.028v-14.279h5.028c2.768 0 5.177-1.894 5.831-4.583 1.196-4.922 3.143-9.619 5.788-13.959 1.441-2.364 1.077-5.407-.881-7.365l-3.56-3.56 10.098-10.097 3.561 3.561c1.958 1.958 5 2.321 7.364.882 4.341-2.644 9.037-4.591 13.959-5.788 2.689-.654 4.583-3.062 4.583-5.83v-5.031h14.279v5.028c0 2.768 1.894 5.177 4.583 5.83 4.922 1.197 9.619 3.145 13.96 5.789 2.364 1.441 5.408 1.077 7.365-.881l3.56-3.56 10.097 10.097-3.561 3.561c-1.958 1.957-2.322 5-.882 7.364 2.644 4.341 4.591 9.038 5.788 13.96.654 2.689 3.062 4.583 5.83 4.583h5.031v14.279zm-58.91-44.219c-20.445 0-37.079 16.634-37.079 37.08s16.634 37.079 37.079 37.079 37.08-16.634 37.08-37.079-16.634-37.08-37.08-37.08zm0 62.159c-13.829 0-25.079-11.25-25.079-25.079s11.25-25.08 25.079-25.08 25.08 11.25 25.08 25.08-11.25 25.079-25.08 25.079zm-30.805-204.907h-34.514c-3.313 0-6 2.687-6 6v25.893c0 3.313 2.687 6 6 6h34.514c3.313 0 6-2.687 6-6v-25.893c0-3.313-2.687-6-6-6zm-6 25.893h-22.514v-13.893h22.514zm68.56-25.893h-34.514c-3.313 0-6 2.687-6 6v25.893c0 3.313 2.687 6 6 6h34.514c3.313 0 6-2.687 6-6v-25.893c0-3.313-2.687-6-6-6zm-6 25.893h-22.514v-13.893h22.514z"/></svg>