<svg id="Layer_1" viewBox="0 0 512 512" xmlns="http://www.w3.org/2000/svg" data-name="Layer 1"><path d="m378.545 303.28-29.457 12.204-3.409 17.288c-1.419 7.202-7.778 12.43-15.12 12.43h-39.822c-7.341 0-13.7-5.228-15.121-12.43l-3.409-17.289-29.457-12.204-14.637 9.815c-6.098 4.089-14.29 3.289-19.481-1.902l-28.158-28.159c-5.191-5.19-5.991-13.383-1.903-19.48l9.815-14.637-1.417-3.42c-1.691-4.082.247-8.762 4.329-10.453 4.082-1.69 8.762.248 10.453 4.329l3.057 7.379c1.025 2.473.745 5.294-.746 7.518l-11.932 17.793 27.474 27.474 17.794-11.933c2.223-1.49 5.044-1.771 7.518-.746l37.374 15.483c2.473 1.024 4.269 3.217 4.787 5.843l4.144 21.017h38.855l4.145-21.017c.518-2.625 2.314-4.818 4.787-5.843l37.374-15.484c2.473-1.025 5.295-.745 7.518.746l17.794 11.933 27.474-27.474-11.933-17.793c-1.491-2.223-1.771-5.044-.747-7.518l15.484-37.375c1.024-2.473 3.217-4.269 5.843-4.787l21.016-4.144v-38.855l-21.016-4.144c-2.626-.518-4.819-2.314-5.843-4.787l-15.484-37.375c-1.025-2.473-.745-5.294.747-7.518l11.933-17.793-27.475-27.475-17.793 11.933c-2.223 1.491-5.044 1.771-7.518.747l-37.375-15.484c-2.473-1.024-4.269-3.217-4.787-5.843l-4.145-21.016h-38.855l-4.144 21.016c-.518 2.626-2.314 4.819-4.787 5.843l-37.375 15.484c-2.473 1.024-5.294.745-7.518-.747l-17.792-11.933-13.737 13.737c-3.124 3.124-8.189 3.124-11.313 0-3.125-3.124-3.125-8.189 0-11.313l14.079-14.079c5.191-5.191 13.384-5.99 19.48-1.903l14.637 9.816 29.458-12.205 3.409-17.287c1.42-7.203 7.779-12.43 15.121-12.43h39.822c7.342 0 13.701 5.228 15.121 12.431l3.409 17.287 29.458 12.205 14.636-9.815c6.098-4.089 14.29-3.289 19.481 1.902l28.159 28.159c5.191 5.19 5.992 13.383 1.903 19.481l-9.816 14.636 12.205 29.458 17.287 3.409c7.203 1.42 12.431 7.779 12.431 15.12v39.823c0 7.341-5.228 13.701-12.43 15.121l-17.288 3.408-12.205 29.458 9.815 14.637c4.09 6.096 3.29 14.29-1.903 19.481l-28.158 28.158c-5.191 5.192-13.384 5.992-19.482 1.901l-14.636-9.814zm-141.382-96.969c-1.438-4.178-5.991-6.401-10.167-4.961-4.178 1.438-6.399 5.989-4.961 10.167 13.006 37.799 48.617 63.195 88.614 63.195 51.662 0 93.692-42.03 93.692-93.692s-42.03-93.692-93.692-93.692c-16.752 0-33.196 4.478-47.551 12.949-3.805 2.245-5.07 7.15-2.824 10.955 2.245 3.806 7.151 5.069 10.955 2.825 11.895-7.019 25.526-10.729 39.42-10.729 42.84 0 77.692 34.853 77.692 77.692s-34.853 77.692-77.692 77.692c-33.169 0-62.7-21.059-73.485-52.401zm-164.514-94.14-59.132-59.132c-11.433-11.434-11.433-30.037 0-41.47s30.037-11.434 41.47 0l59.132 59.132 12.758-12.758c5.17-5.171 12.066-8.019 19.416-8.019s14.245 2.848 19.416 8.019l13.665 13.665c34.818 32.583 61.709 47.105 95.879 51.783 3.011.412 5.528 2.494 6.497 5.374.969 2.879.223 6.06-1.925 8.208l-42.179 42.179s-.003.004-.005.005l-46.795 46.795c-1.362 1.362-3.17 2.188-5.092 2.323-2.805.199-5.568.295-8.284.295-43.111 0-75.26-24.297-103.631-50.87-.063-.06-.126-.12-.188-.182l-13.759-13.759c-10.706-10.706-10.706-28.125 0-38.831l12.758-12.758zm185.079 24.271c-28.982-6.708-53.935-21.136-83.685-48.003l-83.179 83.179c28.688 25.844 55.845 42.362 90.824 40.865l8.388-8.388c-16.306-1.034-31.483-6.192-46.634-15.738-3.738-2.355-4.859-7.295-2.504-11.033 2.355-3.737 7.295-4.859 11.033-2.504 17.375 10.948 34.766 15.055 54.501 12.878l6.328-6.328c-16.111-1.615-30.936-7.224-45.588-17.153-3.657-2.478-4.613-7.453-2.135-11.11s7.453-4.615 11.11-2.135c16.463 11.156 33.157 15.852 52.3 14.711l7.209-7.209c-15.659-2.831-30.278-8.327-45.075-16.875-3.826-2.21-5.135-7.104-2.925-10.929s7.104-5.135 10.929-2.925c16.896 9.761 32.825 14.887 51.307 16.494zm-186.523-.2c-4.467 4.467-4.467 11.736 0 16.204l8.102 8.102 83.19-83.19-8.102-8.102c-2.149-2.149-5.026-3.333-8.102-3.332-3.076 0-5.953 1.184-8.102 3.333l-66.986 66.986zm12.758-35.385 18.844-18.843-59.133-59.131c-5.195-5.194-13.647-5.194-18.843 0-5.195 5.195-5.195 13.648 0 18.843l59.132 59.132zm209.099 114.544c.349.046.698.068 1.045.068 2.107 0 4.146-.833 5.656-2.343l52.901-52.901c3.124-3.124 3.125-8.189 0-11.313-3.124-3.125-8.189-3.124-11.313 0l-45.529 45.529-14.604-25.295c-2.209-3.826-7.102-5.136-10.928-2.928-3.826 2.209-5.137 7.102-2.928 10.928l19.817 34.324c1.244 2.154 3.418 3.607 5.884 3.932zm-215.122 58.815-25.887-19.674c-2.364-1.796-3.539-4.755-3.05-7.685l7.249-43.49c.493-2.956 2.596-5.388 5.45-6.303 2.853-.916 5.979-.158 8.098 1.961l28.994 28.994c2.087 2.086 2.855 5.153 2 7.977l-10.355 34.17c-.76 2.507-2.699 4.483-5.19 5.29-.807.261-1.639.39-2.465.39-1.727 0-3.431-.559-4.841-1.631zm-12.361-29.491 12.883 9.791 5.628-18.573-14.612-14.612zm106.954 60.289c1.307 1.984 1.665 4.447.976 6.721l-12.862 42.445c-.76 2.507-2.698 4.483-5.19 5.291-.807.262-1.639.39-2.465.39-1.727 0-3.431-.559-4.841-1.631l-32.156-24.438c-1.722-1.309-2.841-3.259-3.101-5.406s.36-4.309 1.72-5.991l17.081-21.138c1.716-2.125 4.396-3.227 7.113-2.922l27.938 3.131c2.361.265 4.482 1.565 5.79 3.549zm-17.125 11.28-14.028-1.572-9.145 11.317 16.435 12.49zm-53.618-7.759-11.047 36.456c-1.244 4.103-4.414 7.339-8.48 8.657-1.313.426-2.669.634-4.017.634-2.825 0-5.618-.916-7.928-2.672l-27.619-20.991c-3.748-2.847-5.685-7.51-5.053-12.167.631-4.657 3.739-8.636 8.111-10.383l38.664-15.466c4.714-1.885 9.964-.927 13.7 2.501 3.736 3.427 5.143 8.574 3.67 13.432zm-17.076 1.182-28.221 11.289 20.158 15.32zm81.433-74.999h-3.823c-4.418 0-8 3.582-8 8s3.582 8 8 8h3.823c4.418 0 8-3.582 8-8s-3.582-8-8-8zm-40.643 127.546h-3.823c-4.418 0-8 3.582-8 8s3.582 8 8 8h3.823c4.418 0 8-3.582 8-8s-3.582-8-8-8zm10.048-93.066c-1.269.561-3.071 1.055-4.451.22-1.046-.632-1.734-1.964-1.841-3.563-.295-4.408-4.109-7.75-8.517-7.447-4.408.295-7.742 4.108-7.447 8.517.456 6.803 4.017 12.854 9.527 16.185 3.015 1.823 6.437 2.739 9.988 2.739 3.036 0 6.165-.67 9.211-2.017 4.041-1.787 5.869-6.511 4.082-10.552s-6.51-5.87-10.552-4.082zm-88.3 4.951c-4.418 0-8 3.582-8 8s3.582 8 8 8h3.823c4.418 0 8-3.582 8-8s-3.582-8-8-8zm447.979 208.086c-12.035 16.485-32.801 26.492-55.55 26.769-.032 0-.065 0-.097 0s-.065 0-.097 0c-22.748-.277-43.514-10.284-55.55-26.769-8.9-12.191-17.369-33.708-7.171-66.984 11.125-36.298 35.319-75.579 48.318-96.681 3.351-5.44 5.997-9.736 7.49-12.452 1.406-2.557 4.093-4.146 7.011-4.146s5.605 1.589 7.011 4.146c1.493 2.716 4.139 7.012 7.49 12.452 12.999 21.103 37.193 60.383 48.318 96.681 10.198 33.276 1.729 54.793-7.171 66.984zm-8.126-62.295c-10.524-34.34-34.02-72.485-46.643-92.979-.298-.484-.59-.959-.877-1.425-.287.466-.58.941-.877 1.425-12.623 20.493-36.119 58.639-46.643 92.979-6.537 21.331-4.878 39.609 4.796 52.861 9.062 12.413 25.029 19.961 42.725 20.203 17.696-.242 33.663-7.791 42.725-20.204 9.675-13.251 11.333-31.531 4.796-52.861zm-20.012-3.454c-4.224 1.295-6.599 5.769-5.305 9.993 5.179 16.898 3.064 28.746-6.284 35.216-3.937 2.725-8.924 4.479-14.422 5.073-4.393.474-7.569 4.42-7.095 8.812.443 4.101 3.911 7.142 7.944 7.142.287 0 .577-.015.869-.047 8.144-.879 15.685-3.585 21.81-7.824 15.289-10.581 19.72-29.425 12.477-53.061-1.295-4.224-5.77-6.597-9.993-5.305z"/></svg>